<svg
	height="100%"
	preserveAspectRatio="xMidYMid meet"
	viewBox="0 0 435.26 435.42"
	width="100%"
	xmlns="http://www.w3.org/2000/svg"
>
	<path
		d="m224.83,14.99v194.75c2.28,0,4.38,0,6.48,0,48.68,0,97.36,0,146.04,0,2,0,4.04-.12,5.98.23,3.96.71,6.21,3.25,6.2,7.28,0,4.03-2.29,6.55-6.24,7.26-1.95.35-3.99.22-5.98.23-48.51,0-97.02,0-145.54,0h-6.78v194.75c1.79.09,3.72.27,5.64.27,34.01.02,68.02.01,102.03.02,1.67,0,3.35-.09,5,.12,4.2.53,6.65,2.95,6.88,7.23.21,3.79-2.99,7.47-6.84,8.03-1.14.17-2.33.08-3.5.08-93.52,0-187.05.03-280.57-.02-25.54-.01-47.24-17.13-52.69-41.48-.72-3.21-.85-6.61-.85-9.92-.05-54.34-.04-108.68-.04-163.01,0-9.79,1.3-11.06,11.37-11.06,63.68,0,127.37,0,191.05,0h6.79V15.01c-1.61-.09-3.36-.29-5.12-.29-49.85-.02-99.69-.05-149.54,0-24.3.02-40,15.75-40.03,40.08-.05,37.5-.01,75.01-.02,112.51,0,1.67.07,3.34-.09,5-.44,4.6-3.69,7.56-7.87,7.31-4.13-.25-6.53-3.01-6.54-7.79-.02-41.34-.19-82.67.06-124.01C.28,23.1,24,.25,49.1.23c71.68-.06,143.37-.02,215.05-.02,39.51,0,79.03.47,118.53-.2,19.94-.34,44.14,13.86,50.3,39.46,1.31,5.44,2.1,11.15,2.1,16.74.12,107.18-.05,214.35.19,321.53.06,26.95-15.55,51.42-46.95,57.06-3.89.7-8.31,1.62-11.09-2.22-1.4-1.93-2.48-5.06-1.91-7.16.57-2.1,3.18-3.9,5.27-5.23,1.25-.8,3.24-.46,4.9-.61,18.5-1.72,32.7-16.21,34.04-34.76.11-1.49.15-3,.15-4.5,0-108.68.03-217.35-.01-326.03,0-19.41-11.14-34.31-28.64-38.43-3.37-.79-6.93-1.09-10.41-1.1-50.35-.07-100.69-.05-151.04-.04-1.47,0-2.93.16-4.77.27ZM14.57,225.07c0,1.6,0,2.89,0,4.19,0,50.33-.05,100.67.02,151,.03,23.63,15.92,39.45,39.62,39.49,50.01.07,100.02.03,150.03,0,1.75,0,3.5-.21,5.01-.3v-194.38H14.57Z"
		fill="currentColor"
	/>
	<path
		d="m104.59,119.73c-9.8,0-19.08,0-28.37,0-2.83,0-5.67.09-8.5-.05-5.07-.25-8.16-3.28-8.04-7.67.12-4.18,3.12-7.14,7.96-7.22,10.33-.16,20.66-.06,31-.07,1.79,0,3.59,0,5.95,0,0-10.64,0-20.75,0-30.86,0-2.17-.09-4.34.07-6.5.35-4.71,3.41-7.66,7.63-7.55,4.01.11,7.03,2.97,7.2,7.45.23,6.16.1,12.33.11,18.49,0,6,0,11.99,0,18.61,1.86.12,3.6.33,5.35.33,10.17.03,20.33-.04,30.5.04,5.84.05,9.18,2.98,9.05,7.67-.12,4.47-3.37,7.23-8.95,7.28-10,.09-20,.03-30,.03-1.79,0-3.59,0-5.96,0,0,10.31,0,20.08,0,29.86,0,2.17.06,4.33-.02,6.5-.21,5.42-3.17,8.67-7.69,8.55-4.32-.12-7.18-3.27-7.25-8.46-.12-9.66-.04-19.33-.04-28.99,0-2.16,0-4.32,0-7.45Z"
		fill="currentColor"
	/>
	<path
		d="m322.43,119.72c-14.64,0-29.29.07-43.93-.03-6.06-.04-9.69-3.91-8.57-8.93,1.07-4.78,4.61-6.05,9.03-6.05,19.47.03,38.94.01,58.41,0,9.32,0,18.64-.05,27.96.02,5.92.04,9.24,2.81,9.25,7.46.01,4.65-3.32,7.48-9.21,7.5-14.31.06-28.62.02-42.93.02Z"
		fill="currentColor"
	/>
	<path
		d="m322.71,284.75c13.65,0,27.29,0,40.94.01,1.66,0,3.37-.08,4.97.27,3.69.8,5.84,3.23,5.91,7.02.08,4.02-2.11,6.59-6.01,7.44-1.6.35-3.31.25-4.97.25-27.62.01-55.25.01-82.87,0-1.5,0-3.02.07-4.48-.19-3.94-.68-6.31-3.09-6.39-7.12-.08-4.26,2.3-6.82,6.49-7.52,1.46-.24,2.99-.17,4.48-.17,13.98-.01,27.96,0,41.93,0Z"
		fill="currentColor"
	/>
	<path
		d="m322.13,344.76c13.98,0,27.96-.01,41.93.01,1.66,0,3.84-.41,4.86.45,2.2,1.88,4.77,4.22,5.42,6.81.89,3.55-1.61,6.32-5.26,7.32-1.57.43-3.29.4-4.95.4-27.96.02-55.91.02-83.87.01-.83,0-1.67.02-2.5-.03-5.04-.33-8.14-3.31-8.01-7.69.12-4.18,3.12-7.08,7.95-7.22,6.32-.17,12.65-.06,18.97-.07,8.49,0,16.97,0,25.46,0Z"
		fill="currentColor"
	/>
	<path
		d="m112.11,332.31c-9.06,9.24-17.28,17.76-25.65,26.1-4.44,4.43-10.02,4.02-12.62-.73-2.09-3.82-.82-7.01,2.09-9.86,8.43-8.28,16.83-16.6,25.94-25.59-6.02-5.87-11.71-11.39-17.37-16.95-2.97-2.92-5.95-5.84-8.81-8.87-3.53-3.74-3.69-7.93-.6-11.08,3.1-3.15,7.43-3.14,11.07.47,8.51,8.43,16.86,17.04,25.93,26.24,6.27-6.42,12.16-12.46,18.07-18.48,2.57-2.61,5.13-5.24,7.81-7.74,3.75-3.5,7.98-3.64,11.08-.53,3.11,3.12,3.05,7.42-.53,11.08-7.8,7.98-15.75,15.83-23.63,23.73-.58.58-1.09,1.22-2.27,2.54,7.76,7.6,15.46,15.13,23.14,22.68,1.31,1.28,2.7,2.52,3.78,3.98,2.52,3.41,2.48,6.91-.59,9.92-3.07,3.01-6.73,3.15-9.9.36-4.12-3.62-7.92-7.62-11.78-11.54-4.89-4.97-9.69-10.03-15.19-15.74Z"
		fill="currentColor"
	/>
</svg>