<svg
	height="100%"
	preserveAspectRatio="xMidYMid meet"
	viewBox="0 0 399.95 397.88"
	width="100%"
	xmlns="http://www.w3.org/2000/svg"
>
	<path
		d="m0,82.84c2.14-6.22,3.4-12.95,6.59-18.58,9.49-16.73,24.34-25.28,43.61-25.41,28.89-.19,57.79-.08,86.69-.04,6.74.01,11.25,4.06,11.3,9.83.05,5.82-4.71,9.99-11.55,10-28.38.02-56.75-.03-85.13.02-15.46.03-26.71,8.4-30.55,22.82-.79,2.97-1,6.17-1,9.26-.05,85-.06,169.99-.02,254.99,0,15.92,7.97,27.07,22.18,31.01,3.21.89,6.67,1.24,10.01,1.24,91.63.06,183.27.06,274.9.04,19.49,0,32.15-12.77,32.17-32.36.04-28.24,0-56.49.02-84.73,0-5.68,2.97-9.85,7.58-10.89,6.08-1.37,11.95,3.02,12.11,9.39.2,7.93.09,15.88.08,23.82-.03,22.52.27,45.04-.21,67.55-.53,24.89-21.71,45.83-46.63,46.9-1.82.08-3.64.15-5.46.15-91.5,0-183.01-.03-274.51.04-20.05.02-35.61-8.03-45.58-25.45C3.4,366.82,2.15,360.09,0,353.88c0-90.35,0-180.69,0-271.04Z"
		fill="currentColor"
	/>
	<path
		d="m343.69,0c11.11.22,21.19,3.84,29.62,11.54,4.61,4.21,9,8.67,13.34,13.16,17.41,18.03,17.76,44.13.9,62.67-1.05,1.15-2.15,2.26-3.26,3.37-57.43,57.43-114.88,114.85-172.25,172.34-3.24,3.25-6.82,5.32-11.24,6.53-25.95,7.07-51.85,14.32-77.76,21.53-3.45.96-6.82,1.66-10.19-.29-4.16-2.41-5.88-6.75-4.4-12.14,6.11-22.31,12.87-44.45,18.23-66.94,3.2-13.46,9.75-23.77,19.56-33.46,54.83-54.14,109.17-108.78,163.59-163.33,9.36-9.38,20.28-14.76,33.88-14.97Zm-42.24,53.17c-48.09,48.09-96.43,96.43-144.42,144.42,15.04,15.04,30.48,30.47,45.3,45.3,48.1-48.1,96.44-96.44,144.44-144.44-15.04-15.03-30.48-30.46-45.32-45.28Zm13.82-16.27c16.15,16.15,31.64,31.64,47.44,47.44,4.06-4.31,8.65-8.57,12.51-13.42,6.44-8.09,6.47-21.08-.21-29-5.09-6.03-10.68-11.78-16.76-16.78-7.68-6.3-16.97-7.34-25.51-2.41-6.48,3.75-11.82,9.48-17.46,14.16Zm-169.05,179.76c-4.68,16.93-9.34,33.76-14.18,51.27,17.52-4.86,34.36-9.54,51.22-14.22-12.47-12.47-24.58-24.59-37.04-37.05Z"
		fill="currentColor"
	/>
</svg>