<svg
	height="100%"
	preserveAspectRatio="xMidYMid meet"
	viewBox="0 0 512 512"
	width="100%"
	xmlns="http://www.w3.org/2000/svg"
>
	<path
		d="m240,0C250.67,0,261.33,0,272,0c6.08.74,12.18,1.37,18.24,2.25,50.38,7.24,95.21,26.99,133.56,60.55,45.47,39.79,73.59,89.62,84.23,149.15,1.72,9.62,2.66,19.37,3.97,29.06v30c-.29,1.6-.62,3.2-.86,4.81-1.72,11.67-2.81,23.48-5.22,35.01-20.87,99.99-104.79,180.33-205.86,197.26-9.31,1.56-18.7,2.63-28.06,3.92h-31c-1.29-.26-2.57-.68-3.87-.77-27.44-1.99-54.01-7.89-79.2-18.96C73.41,455.12,22.19,391.04,4.03,300.59c-1.89-9.42-2.71-19.05-4.03-28.59,0-10.67,0-21.33,0-32,.29-1.28.64-2.55.85-3.85,2.41-14.59,3.8-29.43,7.36-43.73C32.31,95.5,113.52,20.57,211.93,3.94,221.24,2.36,230.64,1.3,240,0ZM20.54,266c4.24,129.58,115.16,224.43,225.46,225.08,0-1.81,0-3.62,0-5.44,0-10.17-.11-20.33.05-30.5.11-7.14,5.73-11.59,12.34-10.1,4.73,1.06,7.56,5,7.59,10.92.06,11.79.02,23.58.02,35.38,123.14-2.95,223.59-108.64,225.16-225.34-11.81,0-23.61.06-35.42-.02-6.65-.05-10.82-3.91-10.91-9.79-.09-6.13,4.13-10.1,11.04-10.16,10.33-.08,20.67-.02,31-.02,1.58,0,3.16,0,4.76,0-5.84-132.69-117.33-224.03-225.63-225.18,0,11.8.06,23.61-.02,35.41-.05,6.65-3.9,10.83-9.77,10.93-6.12.1-10.12-4.13-10.17-11.02-.08-10.33-.02-20.67-.02-31,0-1.58,0-3.17,0-4.78C114.74,26.08,22.61,135.19,20.73,246c1.63,0,3.26,0,4.9,0,10,0,20-.03,30,.01,7.36.03,11.68,3.83,11.62,10.09-.06,6.23-4.36,9.84-11.83,9.89-4.83.03-9.67,0-14.5,0-6.79,0-13.57,0-20.37,0Z"
		fill="currentColor"
	/>
	<path
		d="m331.8,238.38c-.01,5.04-3.35,8.66-9.77,10.38-15.25,4.1-30.52,8.13-45.78,12.19-4.82,1.28-9.71,2.34-14.43,3.95-6.12,2.08-10.73.51-15.24-4.05-25.54-25.8-51.28-51.4-76.95-77.07-6.36-6.36-12.76-12.68-19.06-19.09-5.02-5.1-5.35-11.25-.97-15.43,4.24-4.05,10.13-3.66,15.07,1.27,30.18,30.11,60.35,60.24,90.4,90.48,2.76,2.78,5.11,3.68,9.03,2.57,17.75-5.02,35.6-9.74,53.44-14.44,7.92-2.09,14.29,2.16,14.27,9.23Z"
		fill="currentColor"
	/>
</svg>