<svg
	fill="currentColor"
	height="100%"
	preserveAspectRatio="xMidYMid meet"
	stroke-width="0"
	viewBox="0 -0.8 34 34"
	width="100%"
	xmlns="http://www.w3.org/2000/svg"
>
	<path
		d="M28.5,0h-24C2.019,0,0,2.019,0,4.5v24C0,30.98,2.019,33,4.5,33h24c2.48,0,4.5-2.02,4.5-4.5v-24C33,2.019,30.98,0,28.5,0z
			 M32,28.5c0,1.93-1.57,3.5-3.5,3.5h-24c-1.93,0-3.5-1.57-3.5-3.5v-24c0-1.93,1.57-3.5,3.5-3.5h24c1.93,0,3.5,1.57,3.5,3.5V28.5z"
	/>
	<path
		d="M8.681,6.047h15.637c0.388,0,0.705-0.317,0.705-0.705V4.205c0-0.388-0.316-0.705-0.705-0.705H8.681
			c-0.387,0-0.705,0.317-0.705,0.705v1.137C7.977,5.729,8.294,6.047,8.681,6.047z"
	/>
	<rect x="4.116" y="10.609" width="2.262" height="2.262" />
	<rect x="7.331" y="10.609" width="2.263" height="2.262" />
	<rect x="10.546" y="10.609" width="2.263" height="2.262" />
	<rect x="13.761" y="10.609" width="2.263" height="2.262" />
	<rect x="16.977" y="10.609" width="2.263" height="2.262" />
	<rect x="20.191" y="10.609" width="2.263" height="2.262" />
	<rect x="23.406" y="10.609" width="2.263" height="2.262" />
	<rect x="26.622" y="10.609" width="2.262" height="2.262" />
	<rect x="4.116" y="13.824" width="2.262" height="2.264" />
	<rect x="7.331" y="13.824" width="2.263" height="2.264" />
	<rect x="10.546" y="13.824" width="2.263" height="2.264" />
	<rect x="13.761" y="13.824" width="2.263" height="2.264" />
	<rect x="16.977" y="13.824" width="2.263" height="2.264" />
	<rect x="20.191" y="13.824" width="2.263" height="2.264" />
	<rect x="23.406" y="13.824" width="2.263" height="2.264" />
	<rect x="26.622" y="13.824" width="2.262" height="2.264" />
	<rect x="4.116" y="17.039" width="2.262" height="2.264" />
	<rect x="7.331" y="17.039" width="2.263" height="2.264" />
	<rect x="10.546" y="17.039" width="2.263" height="2.264" />
	<rect x="13.761" y="17.039" width="2.263" height="2.264" />
	<rect x="16.977" y="17.039" width="2.263" height="2.264" />
	<rect x="20.191" y="17.039" width="2.263" height="2.264" />
	<rect x="23.406" y="17.039" width="2.263" height="2.264" />
	<rect x="26.622" y="17.039" width="2.262" height="2.264" />
	<rect x="4.116" y="20.254" width="2.262" height="2.264" />
	<rect x="7.331" y="20.254" width="2.263" height="2.264" />
	<rect x="10.546" y="20.254" width="2.263" height="2.264" />
	<rect x="13.761" y="20.254" width="2.263" height="2.264" />
	<rect x="16.977" y="20.254" width="2.263" height="2.264" />
	<rect x="20.191" y="20.254" width="2.263" height="2.264" />
	<rect x="23.406" y="20.254" width="2.263" height="2.264" />
	<rect x="26.622" y="20.254" width="2.262" height="2.264" />
	<rect x="4.116" y="23.469" width="2.262" height="2.264" />
	<rect x="7.331" y="23.469" width="2.263" height="2.264" />
	<rect x="10.546" y="23.469" width="2.263" height="2.264" />
	<rect x="13.761" y="23.469" width="2.263" height="2.264" />
	<rect x="16.977" y="23.469" width="2.263" height="2.264" />
	<rect x="20.191" y="23.469" width="2.263" height="2.264" />
	<rect x="23.406" y="23.469" width="2.263" height="2.264" />
	<rect x="26.622" y="23.469" width="2.262" height="2.264" />
	<rect x="4.116" y="26.686" width="2.262" height="2.263" />
	<rect x="7.331" y="26.686" width="2.263" height="2.263" />
	<rect x="10.546" y="26.686" width="2.263" height="2.263" />
	<rect x="13.761" y="26.686" width="2.263" height="2.263" />
	<rect x="16.977" y="26.686" width="2.263" height="2.263" />
	<rect x="20.191" y="26.686" width="2.263" height="2.263" />
	<rect x="23.406" y="26.686" width="2.263" height="2.263" />
	<rect x="26.622" y="26.686" width="2.262" height="2.263" />
</svg>