<svg
	fill="currentColor"
	height="100%"
	preserveAspectRatio="xMidYMid meet"
	viewBox="-5 35 210 210"
	width="100%"
	xmlns="http://www.w3.org/2000/svg"
>
	<path
		d="M163.4,39.7H37.9C17.1,39.7,0,56.7,0,77.6V203c0,20.8,17.1,37.9,37.9,37.9h125.5c20.8,0,37.9-17.1,37.9-37.9V77.6
	C201.3,56.7,184.2,39.7,163.4,39.7z M195.2,203c0,17.5-14.3,31.8-31.8,31.8h-49.3l81.1-81.1V203z M109.8,230.5v-62.8
	c0-10.1,8.2-18.3,18.3-18.3h62.8L109.8,230.5z M183,143.3h-54.9c-13.4,0-24.4,11-24.4,24.4v54.9v3v9.1H37.9
	c-17.5,0-31.8-14.3-31.8-31.8V77.6c0-17.5,14.3-31.8,31.8-31.8h125.5c17.5,0,31.8,14.3,31.8,31.8v65.8H186"
	/>
</svg>