<svg viewBox="0 0 64 64" xmlns="http://www.w3.org/2000/svg" xmlns:xlink="http://www.w3.org/1999/xlink">
	<defs>
		<linearGradient gradientUnits="userSpaceOnUse" id="b" x1="16.5" x2="21.5" y1="19.67" y2="28.33">
			<stop offset="0" stop-color="#fbbf24" />
			<stop offset=".45" stop-color="#fbbf24" />
			<stop offset="1" stop-color="#f59e0b" />
		</linearGradient>
		<linearGradient gradientUnits="userSpaceOnUse" id="c" x1="22.56" x2="39.2" y1="21.96" y2="50.8">
			<stop offset="0" stop-color="#f3f7fe" />
			<stop offset=".45" stop-color="#f3f7fe" />
			<stop offset="1" stop-color="#deeafb" />
		</linearGradient>
		<linearGradient gradientUnits="userSpaceOnUse" id="a" x1="30.12" x2="31.88" y1="43.48" y2="46.52">
			<stop offset="0" stop-color="#86c3db" />
			<stop offset=".45" stop-color="#86c3db" />
			<stop offset="1" stop-color="#5eafcf" />
		</linearGradient>
		<linearGradient id="d" x1="29.67" x2="32.33" xlink:href="#a" y1="42.69" y2="47.31" />
		<linearGradient id="e" x1="23.12" x2="24.88" xlink:href="#a" y1="43.48" y2="46.52" />
		<linearGradient id="f" x1="22.67" x2="25.33" xlink:href="#a" y1="42.69" y2="47.31" />
		<linearGradient id="g" x1="37.12" x2="38.88" xlink:href="#a" y1="43.48" y2="46.52" />
		<linearGradient id="h" x1="36.67" x2="39.33" xlink:href="#a" y1="42.69" y2="47.31" />
	</defs>
	<circle cx="19" cy="24" fill="url(#b)" r="5" stroke="#f8af18" stroke-miterlimit="10" stroke-width=".5" />
	<path
		d="M19 15.67V12.5m0 23v-3.17m5.89-14.22l2.24-2.24M10.87 32.13l2.24-2.24m0-11.78l-2.24-2.24m16.26 16.26l-2.24-2.24M7.5 24h3.17m19.83 0h-3.17"
		fill="none"
		stroke="#fbbf24"
		stroke-linecap="round"
		stroke-miterlimit="10"
		stroke-width="2"
	>
		<animateTransform
			attributeName="transform"
			dur="45s"
			repeatCount="indefinite"
			type="rotate"
			values="0 19 24; 360 19 24"
		/>
	</path>
	<path
		d="M46.5 31.5h-.32a10.49 10.49 0 00-19.11-8 7 7 0 00-10.57 6 7.21 7.21 0 00.1 1.14A7.5 7.5 0 0018 45.5a4.19 4.19 0 00.5 0v0h28a7 7 0 000-14z"
		fill="url(#c)"
		stroke="#e6effc"
		stroke-miterlimit="10"
		stroke-width=".5"
	/>
	<g>
		<circle cx="31" cy="45" fill="none" r="1.25" stroke="url(#a)" stroke-miterlimit="10" />
		<path
			d="M33.17 46.25l-1.09-.63m-2.16-1.24l-1.09-.63M31 42.5v1.25m0 3.75v-1.25m-1.08-.63l-1.09.63m4.34-2.5l-1.09.63"
			fill="none"
			stroke="url(#d)"
			stroke-linecap="round"
			stroke-miterlimit="10"
		/>
		<animateTransform
			additive="sum"
			attributeName="transform"
			dur="4s"
			repeatCount="indefinite"
			type="translate"
			values="-1 -6; 1 12"
		/>
		<animateTransform
			additive="sum"
			attributeName="transform"
			dur="9s"
			repeatCount="indefinite"
			type="rotate"
			values="0 31 45; 360 31 45"
		/>
		<animate attributeName="opacity" dur="4s" repeatCount="indefinite" values="0;1;1;1;0" />
	</g>
	<g>
		<circle cx="24" cy="45" fill="none" r="1.25" stroke="url(#e)" stroke-miterlimit="10" />
		<path
			d="M26.17 46.25l-1.09-.63m-2.16-1.24l-1.09-.63M24 42.5v1.25m0 3.75v-1.25m-1.08-.63l-1.09.63m4.34-2.5l-1.09.63"
			fill="none"
			stroke="url(#f)"
			stroke-linecap="round"
			stroke-miterlimit="10"
		/>
		<animateTransform
			additive="sum"
			attributeName="transform"
			begin="-2s"
			dur="4s"
			repeatCount="indefinite"
			type="translate"
			values="1 -6; -1 12"
		/>
		<animateTransform
			additive="sum"
			attributeName="transform"
			dur="9s"
			repeatCount="indefinite"
			type="rotate"
			values="0 24 45; 360 24 45"
		/>
		<animate attributeName="opacity" begin="-2s" dur="4s" repeatCount="indefinite" values="0;1;1;1;0" />
	</g>
	<g>
		<circle cx="38" cy="45" fill="none" r="1.25" stroke="url(#g)" stroke-miterlimit="10" />
		<path
			d="M40.17 46.25l-1.09-.63m-2.16-1.24l-1.09-.63M38 42.5v1.25m0 3.75v-1.25m-1.08-.63l-1.09.63m4.34-2.5l-1.09.63"
			fill="none"
			stroke="url(#h)"
			stroke-linecap="round"
			stroke-miterlimit="10"
		/>
		<animateTransform
			additive="sum"
			attributeName="transform"
			begin="-1s"
			dur="4s"
			repeatCount="indefinite"
			type="translate"
			values="1 -6; -1 12"
		/>
		<animateTransform
			additive="sum"
			attributeName="transform"
			dur="9s"
			repeatCount="indefinite"
			type="rotate"
			values="0 38 45; 360 38 45"
		/>
		<animate attributeName="opacity" begin="-1s" dur="4s" repeatCount="indefinite" values="0;1;1;1;0" />
	</g>
</svg>