<svg
	fill="currentColor"
	height="100%"
	preserveAspectRatio="xMidYMid meet"
	viewBox="17 17 66 66"
	width="100%"
	xmlns="http://www.w3.org/2000/svg"
>
	<path d="M 29.429688 17 C 22.598243 17 17 22.598243 17 29.429688 L 17 70.570312 C 17 77.401758 22.598243 83 29.429688 83 L 52.029297 83 L 70.570312 83 C 77.401758 83 83 77.402797 83 70.572266 L 83 51.984375 L 83 29.429688 C 83 22.598243 77.402797 17 70.572266 17 L 29.429688 17 z M 29.429688 19 L 70.572266 19 C 76.311734 19 81 23.689132 81 29.429688 L 81 51 L 78 51 L 78 45.5 A 0.50005 0.50005 0 0 0 77.492188 44.992188 A 0.50005 0.50005 0 0 0 77 45.5 L 77 51 L 59 51 C 54.593562 51 51 54.593562 51 59 L 51 77 L 29.5 77 C 25.904219 77 23 74.095781 23 70.5 L 23 50.5 A 0.50005 0.50005 0 0 0 22.492188 49.992188 A 0.50005 0.50005 0 0 0 22 50.5 L 22 70.5 C 22 74.636219 25.363781 78 29.5 78 L 51 78 L 51 81 L 29.429688 81 C 23.689132 81 19 76.310868 19 70.570312 L 19 29.429688 C 19 23.689132 23.689132 19 29.429688 19 z M 29.5 22 C 25.363781 22 22 25.363781 22 29.5 L 22 45.5 A 0.50005 0.50005 0 1 0 23 45.5 L 23 29.5 C 23 25.904219 25.904219 23 29.5 23 L 41.5 23 A 0.50005 0.50005 0 1 0 41.5 22 L 29.5 22 z M 45.5 22 A 0.50005 0.50005 0 1 0 45.5 23 L 70.5 23 C 74.095781 23 77 25.904219 77 29.5 L 77 32.5 A 0.50005 0.50005 0 1 0 78 32.5 L 78 29.5 C 78 25.363781 74.636219 22 70.5 22 L 45.5 22 z M 77.492188 35.992188 A 0.50005 0.50005 0 0 0 77 36.5 L 77 41.5 A 0.50005 0.50005 0 1 0 78 41.5 L 78 36.5 A 0.50005 0.50005 0 0 0 77.492188 35.992188 z M 59 53 L 79.585938 53 L 53 79.585938 L 53 59 C 53 55.674438 55.674438 53 59 53 z M 81 54.414062 L 81 70.572266 C 81 76.311734 76.310868 81 70.570312 81 L 54.414062 81 L 81 54.414062 z" />
</svg>