<svg
	height="100%"
	preserveAspectRatio="xMidYMid meet"
	viewBox="0 0 512 512"
	width="100%"
	xmlns="http://www.w3.org/2000/svg"
>
	<path
		d="m512,167c-1.48,7.98-2.59,16.05-4.52,23.92-4.37,17.82-12.27,34.05-22.73,49.11-1.57,2.26-2.61,5.4-2.64,8.15-.22,19.5-.18,39-.08,58.49.03,5.13-1.39,9.23-6.4,11.31-4.89,2.03-8.67-.04-12.07-3.49-9.46-9.6-18.96-19.15-28.58-28.86-30.22,17.82-62.63,25.73-97.17,25.32.73,7.72,1.89,14.97,2.03,22.25.96,50.12-18.67,91.33-57.87,121.59-58.49,45.15-122.67,50.6-190.09,21.54-3.91-1.69-5.99-1.3-8.82,1.64-8.89,9.25-18.04,18.26-27.18,27.26-2.46,2.43-5.25,4.52-7.88,6.77h-6c-5.45-2.92-7.19-7.43-7.11-13.57.29-20.48.19-40.97,0-61.46-.02-2.4-1.02-5.22-2.5-7.12-12.42-15.96-21.76-33.5-27.01-53.02-2.37-8.79-3.62-17.88-5.38-26.83,0-7.67,0-15.33,0-23,1.89-9.44,3.05-19.09,5.8-28.27,13.57-45.25,43.11-76.93,84.89-97.68,25.02-12.43,51.73-18.04,79.63-18.07,1.3,0,2.6-.14,3.47-.19-.59-10.21-1.71-20.16-1.64-30.1.15-23.05,6.09-44.73,16.89-65.07,3.44-6.48,8.84-8.67,14.32-5.82,5.36,2.79,6.74,8.53,3.4,15.06-19.18,37.49-20.4,75.58-1.76,113.31,19.98,40.44,53.66,64.75,96.78,75.6,44.92,11.3,87.54,4.67,127.09-19.93,6.84-4.26,10.48-3.85,16.3,2,5.27,5.29,10.44,10.68,16.43,16.81.19-2.56.37-3.95.37-5.35.02-11.83.17-23.66-.06-35.49-.09-4.77,1.29-8.62,4.15-12.4,17.09-22.66,26.31-48.18,25.82-76.64-.75-44.14-20.22-79.26-55.72-104.31-51.86-36.59-107.57-39.73-165.28-14.31-.91.4-1.77.93-2.68,1.34-5.91,2.66-11.5,1.02-14.11-4.13-2.61-5.16-.63-10.67,5.22-13.69,20.05-10.33,41.38-16.38,63.8-18.71,1.97-.2,3.91-.64,5.87-.97,8.67,0,17.33,0,26,0,1.28.28,2.55.72,3.85.83,18.53,1.6,36.46,5.8,53.51,13.2,45.69,19.84,78.23,52.16,93.41,100.32,3.02,9.59,4.2,19.75,6.23,29.65v23ZM55,476.4c.37.19.75.38,1.12.57,6.42-6.51,12.83-13.03,19.28-19.51,6.82-6.85,9.21-6.91,17.98-2.66,61.17,29.66,120.42,26.66,174.88-14.69,40.32-30.62,57.49-72.61,49.83-123.65-.79-5.27-2.43-8.48-8.4-8.52-3.1-.02-6.22-1.08-9.28-1.85-55.6-14.02-96.58-45.57-118.8-99.44-1.18-2.87-2.75-3.57-5.56-3.64-36.44-.89-69.91,8.29-99.62,29.7C11.95,279.16,1.54,363.25,51.12,421.19c2.25,2.63,3.61,6.84,3.71,10.35.4,14.94.17,29.91.17,44.86Z"
		fill="currentColor"
	/>
	<path
		d="m376.15,132.92c-.41,23.96-7.45,44.95-20.86,64.12,13,12.59,28.08,20.43,45.46,23.94,1.96.4,3.94.64,5.91,1.02,6.02,1.15,9.39,5.67,8.58,11.43-.78,5.51-5.72,9.17-11.65,8.32-21.1-3-39.95-11.17-56.32-24.9-1.65-1.38-3.27-2.79-5.24-4.48-1.61,1.36-3.1,2.61-4.59,3.88-16.39,14-35.33,22.34-56.6,25.45-6.23.91-11.31-2.64-12.08-8.34-.8-5.92,2.67-10.42,9.17-11.4,19.33-2.92,36.17-10.87,50.78-24.83-13.29-19.06-20.5-40.14-20.84-64.2-2.2,0-4.28,0-6.36,0-8,0-16,.02-23.99,0-7.69-.02-12.37-3.76-12.46-9.89-.09-6.23,4.49-10.07,12.19-10.09,17.98-.03,35.97,0,54.77,0,0-7.45,0-14.7,0-21.95,0-9.32,3.18-13.86,9.77-13.99,6.82-.14,10.22,4.53,10.22,14.05,0,7.12,0,14.24,0,21.89,3.93,0,7.38,0,10.84,0,14.83,0,29.66-.03,44.49.02,7.24.03,11.76,4.05,11.63,10.14-.12,5.89-4.59,9.78-11.51,9.82-10.29.06-20.58.02-31.3.02Zm-20.1.35h-28.1c.25,17.13,4.73,32.56,14.06,47.45,9.3-14.93,13.82-30.35,14.04-47.45Z"
		fill="currentColor"
	/>
	<path
		d="m236.15,54.78c.09,5.56-4.05,9.97-9.52,10.16-5.5.19-10.35-4.52-10.31-10.02.03-5.3,4.6-9.86,9.92-9.9,5.48-.04,9.82,4.23,9.91,9.76Z"
		fill="currentColor"
	/>
	<path
		d="m220.42,385.69c.04,5.47-2.77,9.21-7.23,10.48-4.58,1.31-9.12-.45-11.37-4.87-2.03-3.99-3.41-8.32-5.53-12.26-.73-1.37-2.82-2.82-4.3-2.84-14.65-.21-29.31-.21-43.96,0-1.49.02-3.55,1.47-4.32,2.83-1.86,3.31-3.06,6.99-4.64,10.48-2.81,6.2-8.26,8.64-13.71,6.22-5.23-2.32-7.19-7.81-4.61-13.97,10.53-25.15,21.16-50.25,31.76-75.37,2.58-6.13,5.16-12.26,7.73-18.39,1.82-4.35,4.73-7.18,9.75-7.18,5.02,0,7.93,2.83,9.76,7.18,13.1,31.1,26.22,62.19,39.3,93.3.7,1.66,1.08,3.47,1.36,4.4Zm-33.71-29.75c-5.58-13.18-10.9-25.73-16.73-39.51-5.87,13.95-11.16,26.5-16.63,39.51h33.36Z"
		fill="currentColor"
	/>
</svg>