<svg
    xmlns="http://www.w3.org/2000/svg"
    viewBox="0 0 512 512"
    width="100%"
    height="100%"
    preserveAspectRatio="xMidYMid meet"
    fill="currentColor"
    stroke="currentColor"
    stroke-width="100"
>
    <g transform="translate(0,512) scale(0.1,-0.1)">
        <path
            d="M1135 4789 c-38 -5 -110 -20 -158 -34 -434 -123 -751 -494 -806 -940
-14 -119 -15 -1757 -1 -1873 64 -504 468 -908 972 -972 46 -5 228 -10 406 -10
360 0 369 1 419 66 53 70 35 173 -39 226 -33 23 -35 23 -413 29 -419 6 -428 8
-575 75 -207 96 -372 293 -437 524 -17 61 -18 124 -18 1000 0 1055 -5 984 80
1155 81 164 196 279 360 360 174 87 40 80 1635 80 l1415 0 78 -23 c275 -79
485 -292 564 -572 17 -61 18 -123 18 -1000 0 -1049 5 -980 -75 -1146 -79 -163
-211 -296 -374 -374 -148 -71 -158 -72 -582 -79 l-381 -6 -35 -27 c-72 -55
-88 -152 -35 -222 50 -65 59 -66 419 -66 350 0 440 7 575 45 179 51 401 186
512 311 159 180 263 403 291 626 14 111 14 1765 0 1876 -64 504 -468 908 -972
972 -102 12 -2740 12 -2843 -1z"
        />
        <path
            d="M1225 3750 c-342 -73 -518 -426 -369 -738 85 -177 262 -287 464 -287
230 0 417 135 491 352 33 95 33 231 0 326 -70 207 -248 341 -466 352 -44 2
-98 0 -120 -5z m207 -346 c124 -87 113 -270 -21 -341 -161 -85 -342 80 -277
252 31 80 107 127 199 122 44 -3 67 -10 99 -33z"
        />
        <path
            d="M2250 3738 c-48 -25 -90 -89 -90 -138 0 -49 42 -113 90 -137 l44 -23
906 0 906 0 44 23 c48 24 90 88 90 137 0 49 -42 113 -90 138 l-44 22 -906 0
-906 0 -44 -22z"
        />
        <path
            d="M2250 3098 c-48 -25 -90 -88 -90 -138 0 -50 42 -113 90 -138 l45 -22
921 2 921 3 35 27 c41 31 68 82 68 127 0 44 -33 105 -72 133 l-33 23 -920 3
-920 2 -45 -22z"
        />
        <path
            d="M970 2458 c-48 -25 -90 -89 -90 -138 0 -49 42 -113 90 -137 l44 -23
1549 0 c1725 0 1589 -6 1645 68 39 51 39 133 0 184 -56 74 80 68 -1645 68
l-1549 0 -44 -22z"
        />
        <path
            d="M2412 1263 c-18 -9 -45 -32 -60 -51 -39 -51 -38 -134 0 -184 43 -56
79 -68 208 -68 129 0 165 12 208 68 22 29 27 46 27 92 0 46 -5 63 -27 92 -43
56 -79 68 -210 68 -84 0 -121 -5 -146 -17z"
        />
        <path
            d="M1612 623 c-18 -9 -45 -32 -60 -51 -39 -51 -38 -134 0 -184 55 -72
-7 -68 1008 -68 1015 0 953 -4 1008 68 39 51 39 133 0 184 -55 72 7 68 -1010
68 -825 0 -916 -2 -946 -17z"
        />
    </g>
</svg>