<svg
	height="100%"
	preserveAspectRatio="xMidYMid meet"
	viewBox="0 0 383.22 340.4"
	width="100%"
	xmlns="http://www.w3.org/2000/svg"
>
	<path
		d="m383.22,199.34c-1.69,8.45-3.9,16.7-8.79,23.97-10.67,15.84-25.43,24.56-44.58,25.54-5.98.31-9.37-2.25-9.59-6.91-.23-4.89,2.95-7.71,9.1-8.05,22.45-1.26,39.12-18.93,38.89-41.23-.19-19.01-14.22-35.64-32.95-39.06-8.44-1.54-10.34-4.54-8.05-12.73,6.82-24.42-5.69-49.94-29.14-59.47-23.2-9.43-50.22.06-62.03,22.25-2.85,5.37-7.18,7.86-11.53,5.62-4.48-2.3-5.03-6.79-1.64-12.98,13.54-24.74,41.85-37.89,69.39-32.26,27.75,5.68,48.51,28.41,51.31,56.64.62,6.26.09,12.63.09,18.65,5.56,3.1,11.78,5.81,17.14,9.7,12.03,8.73,19.05,20.82,21.62,35.47.17.97.5,1.91.75,2.86v11.98Z"
		fill="currentColor"
	/>
	<path
		d="m286.81,231.68c11.72,3.69,22.04,10.85,29.28,21.88,11.57,17.64,13.27,36.43,4.02,55.4-9.3,19.09-25.13,29.41-46.36,31.23-1.98.17-3.99.19-5.98.19-57.87,0-115.74-.01-173.61.02-25.21.01-45.22-10.09-58.04-31.85-13.37-22.68-12.97-46.18,1.4-68.25,14.27-21.92,35.3-31.44,61.46-29.12,2.32.21,3.45-.26,4.58-2.43,11.76-22.6,36.74-32.97,61.17-25.45,2.13.65,3.14.35,4.53-1.51,16.58-22.17,38.82-31.62,65.86-26.05,27.37,5.65,44.32,23.34,50.2,50.7,1.7,7.89,1.03,16.28,1.49,25.24Zm-106.34,93.74c28.56,0,57.12,0,85.67,0,2.37,0,4.74-.06,7.1-.2,19.73-1.16,36.33-17.67,37.43-37.2,1.2-21.3-12.72-39.5-32.93-43.05-8.18-1.44-10.16-4.55-7.93-12.44,6.91-24.43-5.47-49.96-28.9-59.6-23.36-9.61-50.19-.07-62.41,22.17-3.81,6.94-6.34,7.74-13.53,4.31-19.6-9.36-42.57.02-50,20.42-2.79,7.65-4.75,8.69-12.93,6.89-35-7.72-66.98,24.52-58.97,59.44,5.45,23.76,24.98,39.13,50.23,39.24,29.06.12,58.11.03,87.17.03Z"
		fill="currentColor"
	/>
	<path
		d="m57.24,137.8c.25-46.36,38.95-82.91,85.28-80.57,42.12,2.12,76.15,37.57,76.48,79.66.04,4.91-2.72,8.3-6.98,8.56-4.51.28-7.72-2.74-7.9-7.96-.7-19.71-7.88-36.54-23.01-49.29-19.14-16.12-41.12-20.56-64.74-12.21-23.87,8.44-38.59,25.73-42.99,50.73-4.21,23.9,3.39,44.19,21.11,60.79,1.85,1.73,3.75,4.52,3.74,6.81,0,2.22-1.98,5.06-3.93,6.5-2.73,2.02-5.91,1.06-8.55-1.19-8.87-7.55-15.78-16.59-20.75-27.11-5.2-10.99-7.75-22.58-7.74-34.73Z"
		fill="currentColor"
	/>
	<path
		d="m92.86,46.43c-.3,3.66-1.84,6.05-4.97,7.2-3.32,1.23-6.52.46-8.3-2.42-4.78-7.72-9.32-15.6-13.63-23.59-1.81-3.37-.05-7.45,3.26-9.27,3.19-1.75,7.4-1.19,9.34,1.98,4.75,7.74,9.16,15.68,13.64,23.58.47.82.5,1.89.66,2.52Z"
		fill="currentColor"
	/>
	<path
		d="m210.91,25.65c-.3.78-.69,2.37-1.47,3.74-3.79,6.71-7.64,13.38-11.55,20.01-2.66,4.51-6.77,5.9-10.63,3.74-3.96-2.22-4.9-6.66-2.25-11.31,3.93-6.91,7.89-13.81,11.97-20.64,1.85-3.09,4.74-4.35,8.3-3.48,3.24.79,5.57,3.85,5.63,7.92Z"
		fill="currentColor"
	/>
	<path
		d="m19.97,145.48c-4.1,0-8.21.09-12.31-.03C3.12,145.32-.02,142.17,0,137.99c.02-4.11,3.23-7.36,7.73-7.42,8.21-.11,16.42-.12,24.62,0,4.56.07,7.66,3.28,7.63,7.49-.02,4.2-3.14,7.2-7.71,7.42-.25.01-.5.01-.75.01-3.86,0-7.71,0-11.57,0,0,0,0-.01,0-.02Z"
		fill="currentColor"
	/>
	<path
		d="m25.45,210.77c-3.91-.09-6.28-1.68-7.45-4.78-1.24-3.26-.6-6.52,2.3-8.32,7.7-4.79,15.57-9.33,23.54-13.65,3.39-1.84,7.48-.14,9.33,3.13,1.84,3.25,1.15,7.61-2.13,9.62-7.52,4.61-15.23,8.91-22.91,13.26-.93.53-2.12.6-2.68.74Z"
		fill="currentColor"
	/>
	<path
		d="m145.6,19.92c0,3.99.12,7.99-.03,11.97-.18,4.96-3.2,8.06-7.54,8.02-4.34-.04-7.27-3.15-7.34-8.17-.11-7.86-.1-15.72,0-23.58C130.75,3.11,133.61.06,138,0c4.53-.06,7.44,3.06,7.59,8.32.1,3.86.02,7.73.01,11.6Z"
		fill="currentColor"
	/>
	<path
		d="m54.78,84.75c-.78,5.99-6.33,9.73-11.27,7.12-7.8-4.11-15.4-8.61-22.91-13.22-3.36-2.06-4.03-6.28-2.17-9.59,1.93-3.44,6.03-4.98,9.63-3.03,7.64,4.14,15.21,8.45,22.57,13.06,1.84,1.15,2.79,3.73,4.15,5.66Z"
		fill="currentColor"
	/>
</svg>