<svg
    xmlns="http://www.w3.org/2000/svg"
    viewBox="0 0 512 512"
    width="100%"
    height="100%"
    preserveAspectRatio="xMidYMid meet"
    fill="currentColor"
    stroke="currentColor"
    stroke-width="100"
>
    <g transform="translate(0,512) scale(0.1,-0.1)">
        <path
            d="M2480 4874 c-14 -2 -45 -10 -70 -16 -57 -14 -1979 -910 -2034 -948
    -150 -103 -236 -290 -208 -456 22 -131 108 -262 221 -333 25 -16 481 -232
    1013 -481 1003 -467 1032 -480 1158 -480 126 0 156 13 1138 471 521 242 974
    456 1007 474 103 57 189 156 228 263 29 80 29 224 0 304 -40 109 -123 205
    -228 263 -94 52 -1945 910 -1993 924 -46 13 -191 22 -232 15z"
        />
        <path
            d="M250 2458 c-48 -25 -90 -89 -90 -138 1 -38 35 -106 64 -125 14 -9
    202 -95 418 -189 216 -95 702 -309 1080 -475 482 -212 709 -306 760 -317 94
    -20 213 -13 305 18 96 34 2071 936 2110 964 39 29 68 100 60 149 -12 71 -87
    134 -161 135 -17 0 -443 -189 -1050 -466 -561 -257 -1040 -473 -1064 -481
    -96 -34 -97 -33 -877 309 -1355 595 -1437 630 -1473 635 -26 3 -51 -3 -82 -19z"
        />
        <path
            d="M250 1498 c-48 -25 -90 -89 -90 -138 0 -46 42 -113 85 -137 22 -12
    518 -231 1103 -488 757 -332 1083 -471 1135 -482 93 -19 212 -12 304 19 95
    33 2071 936 2110 964 39 29 68 100 60 149 -12 72 -87 134 -161 135 -18 0 -325
    -135 -765 -336 -405 -185 -875 -400 -1046 -478 l-310 -141 -75 0 -75 0 -720
    317 c-1305 573 -1437 630 -1473 635 -26 3 -51 -3 -82 -19z"
        />
    </g>
</svg>