<svg
    xmlns="http://www.w3.org/2000/svg"
    viewBox="0 0 512 512"
    width="100%"
    height="100%"
    preserveAspectRatio="xMidYMid meet"
    fill="currentColor"
    stroke="currentColor"
    stroke-width="100"
>
    <g transform="translate(0,512) scale(0.1,-0.1)">
        <path
            d="M2390 4945 c-157 -25 -329 -91 -455 -177 -127 -86 -1388 -1071 -1450
-1133 -147 -146 -246 -325 -298 -535 -20 -82 -21 -112 -24 -975 -3 -586 -1
-921 6 -981 56 -484 418 -867 911 -966 99 -20 2865 -19 2965 1 484 96 845 477
905 953 6 51 10 410 10 938 0 927 -2 967 -55 1128 -56 168 -172 352 -289 459
-49 45 -1243 975 -1396 1087 -230 169 -545 245 -830 201z m388 -334 c92 -27
188 -75 272 -137 115 -85 1263 -976 1322 -1027 75 -63 142 -152 189 -252 78
-163 73 -94 77 -1100 2 -779 1 -910 -13 -976 -59 -292 -270 -519 -567 -611
l-73 -23 -1390 -3 c-1245 -2 -1398 -1 -1470 13 -266 54 -490 238 -590 483 -56
138 -56 138 -53 1122 l3 905 33 95 c40 113 100 214 179 298 46 49 1104 878
1373 1076 109 81 230 133 370 160 60 11 266 -3 338 -23z"
        />
        <path
            d="M1612 1583 c-18 -9 -45 -32 -60 -51 -22 -29 -27 -46 -27 -92 1 -69
29 -114 89 -141 39 -18 85 -19 949 -19 1012 0 950 -4 1005 68 39 51 39 133 0
184 -55 72 7 68 -1010 68 -825 0 -916 -2 -946 -17z"
        />
    </g>
</svg>